<mxfile host="Electron" modified="2023-06-03T15:43:23.205Z" agent="Mozilla/5.0 (Windows NT 10.0; Win64; x64) AppleWebKit/537.36 (KHTML, like Gecko) draw.io/21.2.8 Chrome/112.0.5615.165 Electron/24.2.0 Safari/537.36" etag="VYDOG3Gobjgr7ucB2sr1" version="21.2.8" type="device">
  <diagram id="dX7Dphyso45SB9-RoEhv" name="Page-1">
    <mxGraphModel dx="1418" dy="828" grid="1" gridSize="10" guides="1" tooltips="1" connect="1" arrows="1" fold="1" page="1" pageScale="1" pageWidth="827" pageHeight="1169" math="0" shadow="0">
      <root>
        <mxCell id="0" />
        <mxCell id="1" parent="0" />
        <mxCell id="nfxZPmU7g6QgWNAvG-ER-2" value="" style="whiteSpace=wrap;html=1;aspect=fixed;strokeWidth=5;fontFamily=xkcd;fillColor=#FFFFFF;strokeColor=#FFFFFF;" parent="1" vertex="1">
          <mxGeometry x="210" y="80" width="600" height="600" as="geometry" />
        </mxCell>
        <mxCell id="8b6ggLF4gSHIukh4vJdm-18" value="&lt;font&gt;&lt;font color=&quot;#000000&quot;&gt;&lt;span style=&quot;font-size: 24px;&quot;&gt;&lt;b&gt;Crafting digital marvels&lt;/b&gt;&lt;/span&gt;&lt;/font&gt;&lt;br&gt;&lt;/font&gt;" style="text;html=1;strokeColor=none;fillColor=none;align=center;verticalAlign=middle;whiteSpace=wrap;rounded=0;fontFamily=xkcd;" parent="1" vertex="1">
          <mxGeometry x="225" y="120" width="570" height="22" as="geometry" />
        </mxCell>
        <mxCell id="8b6ggLF4gSHIukh4vJdm-24" value="&lt;font&gt;&lt;font color=&quot;#000000&quot;&gt;&lt;span style=&quot;font-size: 18px;&quot;&gt;&lt;b&gt;Innovation, excellence, and beyond&amp;nbsp;&lt;/b&gt;&lt;/span&gt;&lt;/font&gt;&lt;br&gt;&lt;/font&gt;" style="text;html=1;strokeColor=none;fillColor=none;align=center;verticalAlign=middle;whiteSpace=wrap;rounded=0;fontFamily=xkcd;" parent="1" vertex="1">
          <mxGeometry x="210" y="150" width="600" height="20" as="geometry" />
        </mxCell>
        <mxCell id="8b6ggLF4gSHIukh4vJdm-30" value="" style="endArrow=none;dashed=1;html=1;strokeWidth=2;strokeColor=#000000;" parent="1" edge="1">
          <mxGeometry width="50" height="50" relative="1" as="geometry">
            <mxPoint x="797.5" y="190" as="sourcePoint" />
            <mxPoint x="222.5" y="190" as="targetPoint" />
          </mxGeometry>
        </mxCell>
        <mxCell id="k-dpR7HA_-HZ3Fbqk2lw-16" value="" style="endArrow=none;dashed=1;html=1;strokeWidth=2;strokeColor=#000000;" parent="1" edge="1">
          <mxGeometry width="50" height="50" relative="1" as="geometry">
            <mxPoint x="800" y="584" as="sourcePoint" />
            <mxPoint x="225" y="584" as="targetPoint" />
          </mxGeometry>
        </mxCell>
        <mxCell id="k-dpR7HA_-HZ3Fbqk2lw-17" value="&lt;font style=&quot;&quot;&gt;&lt;font style=&quot;&quot; color=&quot;#000000&quot;&gt;&lt;b style=&quot;&quot;&gt;&lt;span style=&quot;font-size: 18px;&quot;&gt;Side note&lt;/span&gt;&lt;br&gt;&lt;/b&gt;&lt;/font&gt;&lt;b&gt;&lt;font style=&quot;font-size: 14px;&quot; color=&quot;#000000&quot;&gt;witness the alchemy of our process as we transform ideas into digital marvels. prepare to be amazed&lt;/font&gt;&lt;/b&gt;&lt;br&gt;&lt;/font&gt;" style="text;html=1;strokeColor=none;fillColor=none;align=center;verticalAlign=middle;whiteSpace=wrap;rounded=0;fontFamily=xkcd;" parent="1" vertex="1">
          <mxGeometry x="210" y="585" width="600" height="80" as="geometry" />
        </mxCell>
        <mxCell id="euaHSMH8fYii958cPEId-22" style="edgeStyle=orthogonalEdgeStyle;rounded=0;orthogonalLoop=1;jettySize=auto;html=1;exitX=0.5;exitY=1;exitDx=0;exitDy=0;strokeWidth=2;" parent="1" edge="1">
          <mxGeometry relative="1" as="geometry">
            <mxPoint x="661" y="451" as="sourcePoint" />
            <mxPoint x="661" y="451" as="targetPoint" />
          </mxGeometry>
        </mxCell>
        <mxCell id="pKVuHFSoDqtFi99w7tCS-15" value="&lt;font style=&quot;&quot;&gt;&lt;b&gt;&lt;font color=&quot;#000000&quot; style=&quot;font-size: 14px;&quot;&gt;Â©2023 All rights begrudgingly reserved. Unauthorized attempts to mimic our magic will result in a labyrinth of spaghetti code.&lt;/font&gt;&lt;/b&gt;&lt;br&gt;&lt;/font&gt;" style="text;html=1;strokeColor=none;fillColor=none;align=center;verticalAlign=middle;whiteSpace=wrap;rounded=0;rotation=-90;fontFamily=xkcd;" parent="1" vertex="1">
          <mxGeometry x="600" y="380" width="360" height="20" as="geometry" />
        </mxCell>
        <mxCell id="ESBs4Za4Zb-xoG1EwR6T-1" style="edgeStyle=orthogonalEdgeStyle;rounded=0;orthogonalLoop=1;jettySize=auto;html=1;exitX=0.75;exitY=0;exitDx=0;exitDy=0;entryX=0.775;entryY=-0.05;entryDx=0;entryDy=0;entryPerimeter=0;" edge="1" parent="1" source="pKVuHFSoDqtFi99w7tCS-15" target="pKVuHFSoDqtFi99w7tCS-15">
          <mxGeometry relative="1" as="geometry" />
        </mxCell>
        <mxCell id="ESBs4Za4Zb-xoG1EwR6T-2" value="" style="group" vertex="1" connectable="0" parent="1">
          <mxGeometry x="260" y="400" width="90" height="185" as="geometry" />
        </mxCell>
        <mxCell id="_axvJHcLCZw86LOWZs9C-13" value="" style="endArrow=none;html=1;strokeColor=#000000;strokeWidth=5;" parent="ESBs4Za4Zb-xoG1EwR6T-2" edge="1">
          <mxGeometry width="50" height="50" relative="1" as="geometry">
            <mxPoint x="90" y="30" as="sourcePoint" />
            <mxPoint x="40" y="47.5" as="targetPoint" />
            <Array as="points">
              <mxPoint x="90" y="70" />
            </Array>
          </mxGeometry>
        </mxCell>
        <mxCell id="_axvJHcLCZw86LOWZs9C-15" value="" style="endArrow=none;html=1;strokeColor=#000000;strokeWidth=5;" parent="ESBs4Za4Zb-xoG1EwR6T-2" edge="1">
          <mxGeometry width="50" height="50" relative="1" as="geometry">
            <mxPoint x="40" y="115" as="sourcePoint" />
            <mxPoint x="10" y="185" as="targetPoint" />
          </mxGeometry>
        </mxCell>
        <mxCell id="_axvJHcLCZw86LOWZs9C-16" value="" style="endArrow=none;html=1;strokeColor=#000000;strokeWidth=5;entryX=0.406;entryY=1.032;entryDx=0;entryDy=0;entryPerimeter=0;" parent="ESBs4Za4Zb-xoG1EwR6T-2" target="_axvJHcLCZw86LOWZs9C-12" edge="1">
          <mxGeometry width="50" height="50" relative="1" as="geometry">
            <mxPoint x="120" y="60" as="sourcePoint" />
            <mxPoint x="100" y="40" as="targetPoint" />
            <Array as="points">
              <mxPoint x="80" y="90" />
            </Array>
          </mxGeometry>
        </mxCell>
        <mxCell id="_axvJHcLCZw86LOWZs9C-12" value="" style="ellipse;whiteSpace=wrap;html=1;aspect=fixed;strokeColor=#000000;strokeWidth=5;fillColor=#000000;" parent="ESBs4Za4Zb-xoG1EwR6T-2" vertex="1">
          <mxGeometry x="20" width="45" height="45" as="geometry" />
        </mxCell>
        <mxCell id="_axvJHcLCZw86LOWZs9C-14" value="" style="endArrow=none;html=1;strokeColor=#000000;strokeWidth=5;" parent="ESBs4Za4Zb-xoG1EwR6T-2" edge="1">
          <mxGeometry width="50" height="50" relative="1" as="geometry">
            <mxPoint x="40" y="40" as="sourcePoint" />
            <mxPoint x="80" y="185" as="targetPoint" />
            <Array as="points">
              <mxPoint x="40" y="120" />
            </Array>
          </mxGeometry>
        </mxCell>
        <mxCell id="ESBs4Za4Zb-xoG1EwR6T-6" value="" style="image;sketch=0;aspect=fixed;html=1;points=[];align=center;fontSize=12;image=img/lib/mscae/Blueprints.svg;" vertex="1" parent="1">
          <mxGeometry x="334" y="410" width="69.58" height="66.8" as="geometry" />
        </mxCell>
        <mxCell id="ESBs4Za4Zb-xoG1EwR6T-7" value="" style="group;flipH=1;" vertex="1" connectable="0" parent="1">
          <mxGeometry x="600" y="400" width="90" height="185" as="geometry" />
        </mxCell>
        <mxCell id="ESBs4Za4Zb-xoG1EwR6T-8" value="" style="endArrow=none;html=1;strokeColor=#000000;strokeWidth=5;" edge="1" parent="ESBs4Za4Zb-xoG1EwR6T-7" source="ESBs4Za4Zb-xoG1EwR6T-13">
          <mxGeometry width="50" height="50" relative="1" as="geometry">
            <mxPoint y="30" as="sourcePoint" />
            <mxPoint x="50" y="47.5" as="targetPoint" />
            <Array as="points">
              <mxPoint y="70" />
            </Array>
          </mxGeometry>
        </mxCell>
        <mxCell id="ESBs4Za4Zb-xoG1EwR6T-9" value="" style="endArrow=none;html=1;strokeColor=#000000;strokeWidth=5;" edge="1" parent="ESBs4Za4Zb-xoG1EwR6T-7">
          <mxGeometry width="50" height="50" relative="1" as="geometry">
            <mxPoint x="50" y="115" as="sourcePoint" />
            <mxPoint x="80" y="185" as="targetPoint" />
          </mxGeometry>
        </mxCell>
        <mxCell id="ESBs4Za4Zb-xoG1EwR6T-10" value="" style="endArrow=none;html=1;strokeColor=#000000;strokeWidth=5;" edge="1" parent="ESBs4Za4Zb-xoG1EwR6T-7">
          <mxGeometry width="50" height="50" relative="1" as="geometry">
            <mxPoint x="-30" y="60" as="sourcePoint" />
            <mxPoint x="50" y="50" as="targetPoint" />
            <Array as="points">
              <mxPoint x="10" y="90" />
            </Array>
          </mxGeometry>
        </mxCell>
        <mxCell id="ESBs4Za4Zb-xoG1EwR6T-11" value="" style="ellipse;whiteSpace=wrap;html=1;aspect=fixed;strokeColor=#000000;strokeWidth=5;fillColor=#000000;" vertex="1" parent="ESBs4Za4Zb-xoG1EwR6T-7">
          <mxGeometry x="25" width="45" height="45" as="geometry" />
        </mxCell>
        <mxCell id="ESBs4Za4Zb-xoG1EwR6T-12" value="" style="endArrow=none;html=1;strokeColor=#000000;strokeWidth=5;" edge="1" parent="ESBs4Za4Zb-xoG1EwR6T-7">
          <mxGeometry width="50" height="50" relative="1" as="geometry">
            <mxPoint x="50" y="40" as="sourcePoint" />
            <mxPoint x="10" y="185" as="targetPoint" />
            <Array as="points">
              <mxPoint x="50" y="120" />
            </Array>
          </mxGeometry>
        </mxCell>
        <mxCell id="ESBs4Za4Zb-xoG1EwR6T-13" value="" style="shadow=0;dashed=0;html=1;strokeColor=none;fillColor=#4495D1;labelPosition=center;verticalLabelPosition=bottom;verticalAlign=top;align=center;outlineConnect=0;shape=mxgraph.veeam.magnifying_glass;pointerEvents=1;rotation=30;" vertex="1" parent="1">
          <mxGeometry x="531.68" y="393.75" width="67.5" height="64.4" as="geometry" />
        </mxCell>
        <mxCell id="ESBs4Za4Zb-xoG1EwR6T-14" value="&lt;font style=&quot;font-size: 14px;&quot; face=&quot;Comic Sans MS&quot;&gt;&lt;b&gt;What&#39;s our secret to crafting exceptional apps and websites?&lt;/b&gt;&lt;/font&gt;" style="whiteSpace=wrap;html=1;shape=mxgraph.basic.oval_callout;fillColor=#999999;spacingLeft=11;spacingRight=10;spacingBottom=11;strokeColor=#000000;" vertex="1" parent="1">
          <mxGeometry x="310" y="250" width="270" height="80" as="geometry" />
        </mxCell>
        <mxCell id="ESBs4Za4Zb-xoG1EwR6T-15" value="&lt;font style=&quot;font-size: 14px;&quot; face=&quot;Comic Sans MS&quot;&gt;&lt;b&gt;Let&#39;s impact every detail with precision.&lt;/b&gt;&lt;/font&gt;" style="whiteSpace=wrap;html=1;shape=mxgraph.basic.oval_callout;flipH=1;strokeColor=#000000;fillColor=#999999;" vertex="1" parent="1">
          <mxGeometry x="390" y="313.75" width="270" height="80" as="geometry" />
        </mxCell>
      </root>
    </mxGraphModel>
  </diagram>
</mxfile>
